<?xml version="1.0" standalone="no"?>
<!DOCTYPE svg PUBLIC "-//W3C//DTD SVG 20010904//EN"
 "http://www.w3.org/TR/2001/REC-SVG-20010904/DTD/svg10.dtd">
<svg version="1.0" xmlns="http://www.w3.org/2000/svg"
 width="434.000000pt" height="676.000000pt" viewBox="0 0 434.000000 676.000000"
 preserveAspectRatio="xMidYMid meet">
<metadata>
Created by potrace 1.16, written by Peter Selinger 2001-2019
</metadata>
<g transform="translate(0.000000,676.000000) scale(0.100000,-0.100000)"
fill="#000000" stroke="none">
<path d="M0 3380 l0 -3380 2170 0 2170 0 0 3380 0 3380 -2170 0 -2170 0 0
-3380z m4200 -5 l0 -3265 -2050 0 -2050 0 0 3265 0 3265 2050 0 2050 0 0
-3265z"/>
<path d="M2450 6465 l-23 -25 -1114 0 -1113 0 0 -45 0 -45 1056 0 1056 0 -78
-65 -78 -65 -978 0 -978 0 0 -60 0 -60 902 -2 901 -3 -70 -57 -70 -58 -832 0
-831 0 0 -40 0 -40 780 -2 781 -3 -75 -62 -75 -63 -706 0 -705 0 0 -60 0 -60
633 0 632 -1 -75 -69 -75 -69 -557 -1 -558 0 0 -40 0 -40 510 0 c281 0 510 -4
510 -8 0 -4 -26 -33 -58 -65 l-58 -57 -452 0 -452 0 0 -60 0 -60 395 0 c217 0
395 -3 395 -7 0 -4 -21 -38 -47 -75 l-46 -68 -349 0 -348 0 0 -40 0 -40 320 0
c214 0 320 -3 320 -10 0 -6 -11 -33 -25 -60 l-25 -50 -295 0 -295 0 0 -60 0
-60 271 0 272 0 -7 -37 c-3 -21 -11 -55 -16 -75 l-11 -38 -254 0 -255 0 0 -45
0 -45 245 0 245 0 0 -42 c0 -24 -3 -53 -6 -65 l-6 -23 -239 0 -239 0 0 -60 0
-60 238 -2 237 -3 0 -65 0 -65 -238 -3 -237 -2 0 -65 0 -65 239 0 c270 0 251
7 251 -86 l0 -54 -245 0 -245 0 0 -65 0 -65 259 0 258 0 12 -57 c6 -31 11 -60
11 -65 0 -4 -121 -8 -270 -8 l-270 0 0 -59 0 -58 77 -7 c42 -3 174 -6 293 -6
l218 0 16 -40 c9 -22 16 -45 16 -50 0 -6 -114 -10 -310 -10 l-310 0 0 -65 0
-65 345 -2 345 -3 30 -52 30 -53 -375 0 -375 0 0 -45 0 -45 404 0 404 0 41
-55 42 -55 -446 0 -445 0 0 -65 0 -65 503 0 502 0 47 -48 c27 -27 48 -52 48
-55 0 -4 -247 -7 -550 -7 l-550 0 0 -60 0 -60 623 0 622 0 73 -55 c40 -30 70
-55 65 -55 -4 -1 -317 0 -695 0 l-688 1 0 -66 0 -65 793 0 792 0 132 -62 c73
-35 132 -66 133 -69 1 -17 -123 -19 -956 -19 l-894 0 0 -45 0 -45 1038 -2
1037 -3 3 -143 3 -142 84 0 85 0 0 145 0 146 98 -3 97 -3 3 -142 3 -143 32
-16 c17 -9 53 -32 80 -51 l47 -35 0 184 c0 130 4 188 12 196 9 9 165 12 640
12 l628 0 0 45 0 45 -127 1 c-71 1 -320 5 -555 8 l-427 6 60 68 61 67 494 0
494 0 0 60 0 60 -436 0 c-240 0 -434 3 -432 8 2 4 21 31 43 59 l40 52 393 0
392 1 0 60 0 60 -345 0 c-190 0 -345 2 -345 5 0 2 16 29 35 60 l36 55 310 0
310 0 -3 56 -3 57 -267 -2 c-172 -1 -268 1 -272 8 -4 6 5 33 19 61 l25 50 250
0 250 0 0 40 0 40 -222 2 -223 3 2 22 c2 13 11 40 20 60 l18 38 203 3 202 2 0
55 0 55 -175 0 c-96 0 -175 4 -175 9 0 4 10 31 21 60 l22 51 153 0 154 0 0 60
0 60 -131 0 c-148 0 -139 -8 -98 86 l20 44 104 0 105 0 0 60 0 60 -100 0 c-70
0 -100 4 -100 12 0 6 5 40 11 75 l11 63 89 0 89 0 0 65 0 65 -84 0 -83 0 -7
46 c-13 99 -18 94 84 94 l90 0 0 60 0 60 -94 0 c-106 0 -99 -5 -111 83 l-6 47
105 0 106 0 0 50 0 49 -117 3 -117 3 -13 50 c-23 90 -30 85 117 85 l130 0 0
60 0 60 -150 0 -150 0 -15 37 c-9 20 -18 47 -21 60 l-6 23 171 0 171 0 0 45 0
45 -192 -3 -193 -2 -32 60 c-18 33 -33 66 -33 73 0 9 52 12 225 12 l225 0 0
60 0 60 -267 0 -268 1 -42 64 -42 65 263 0 c145 0 284 3 310 6 44 6 46 8 46
40 l0 34 -342 0 -343 0 -53 61 c-29 34 -51 67 -49 73 3 8 118 12 395 14 l392
2 0 55 0 55 -461 0 -461 0 -63 62 c-35 34 -62 66 -59 70 3 4 239 8 525 8 l519
0 0 35 0 35 -566 0 -566 0 -69 61 c-38 34 -69 64 -69 68 0 3 286 5 635 3 l635
-3 0 56 0 55 -691 0 -691 0 -69 61 c-38 34 -66 65 -63 70 3 5 324 9 760 9
l754 0 0 40 0 40 -778 0 -779 0 -23 25 c-13 14 -26 25 -30 25 -4 0 -17 -11
-30 -25z"/>
<path d="M203 1186 c6 -372 9 -420 27 -477 78 -252 334 -429 619 -429 261 1
464 138 558 377 24 61 28 85 32 238 l6 170 70 0 70 0 3 -352 2 -353 75 0 75 0
0 430 0 430 -234 0 -234 0 -4 -232 c-3 -231 -3 -233 -31 -289 -54 -111 -168
-189 -302 -208 -215 -31 -419 77 -508 267 -38 82 -45 164 -46 570 l-1 272 -92
0 -91 0 6 -414z"/>
<path d="M570 1232 l0 -368 25 -51 c83 -166 365 -178 436 -19 15 35 19 83 25
334 l7 292 754 0 c683 0 756 -2 779 -16 51 -34 54 -51 54 -351 0 -153 3 -369
7 -481 l6 -202 77 0 77 0 5 496 c4 291 2 509 -3 529 -20 70 -70 128 -143 165
l-69 35 -843 3 -844 3 0 -204 c0 -112 -3 -280 -7 -373 -6 -157 -8 -170 -29
-191 -31 -31 -84 -31 -121 1 l-28 24 -3 371 -3 371 -79 0 -80 0 0 -368z"/>
<path d="M2890 1586 c0 -2 16 -23 35 -46 19 -22 44 -59 57 -81 l22 -39 453 0
453 0 0 -97 0 -98 -267 -267 -268 -268 368 0 367 0 0 60 0 60 -196 0 c-121 0
-194 4 -192 10 2 5 78 90 171 189 l167 180 0 201 0 200 -585 0 c-322 0 -585
-2 -585 -4z"/>
<path d="M1920 790 l0 -430 75 0 75 0 2 353 3 352 110 0 110 0 3 -352 2 -353
75 0 75 0 0 430 0 430 -265 0 -265 0 0 -430z"/>
<path d="M3010 1138 l0 -73 125 3 c69 2 125 0 125 -5 0 -4 -77 -80 -170 -168
l-170 -160 0 -192 0 -193 590 0 590 0 0 75 0 75 -510 0 -510 0 0 102 0 103
252 252 253 253 -288 0 -287 0 0 -72z"/>
</g>
</svg>
