<?xml version="1.0" encoding="UTF-8" standalone="no"?>
<svg
   width="91.655922mm"
   height="112.32862mm"
   viewBox="0 0 91.655922 112.32862"
   version="1.1"
   id="svg8"
   inkscape:version="1.1 (c68e22c387, 2021-05-23)"
   sodipodi:docname="LOGO_SVG_VerifiDoc.svg"
   xmlns:inkscape="http://www.inkscape.org/namespaces/inkscape"
   xmlns:sodipodi="http://sodipodi.sourceforge.net/DTD/sodipodi-0.dtd"
   xmlns="http://www.w3.org/2000/svg"
   xmlns:svg="http://www.w3.org/2000/svg"
   xmlns:rdf="http://www.w3.org/1999/02/22-rdf-syntax-ns#"
   xmlns:cc="http://creativecommons.org/ns#"
   xmlns:dc="http://purl.org/dc/elements/1.1/">
  <defs
     id="defs2">
    <rect
       x="55.184525"
       y="160.63988"
       width="62.363121"
       height="12.672488"
       id="rect44" />
  </defs>
  <sodipodi:namedview
     id="base"
     pagecolor="#ffffff"
     bordercolor="#666666"
     borderopacity="1.0"
     inkscape:pageopacity="0.0"
     inkscape:pageshadow="2"
     inkscape:zoom="0.7"
     inkscape:cx="352.14286"
     inkscape:cy="196.42857"
     inkscape:document-units="mm"
     inkscape:current-layer="g82"
     inkscape:document-rotation="0"
     showgrid="false"
     showguides="true"
     inkscape:window-width="1920"
     inkscape:window-height="1017"
     inkscape:window-x="-8"
     inkscape:window-y="-8"
     inkscape:window-maximized="1"
     inkscape:guide-bbox="true"
     borderlayer="false"
     fit-margin-top="0"
     fit-margin-left="0"
     fit-margin-right="0"
     fit-margin-bottom="0"
     inkscape:pagecheckerboard="0">
    <sodipodi:guide
       position="-0.11424322,154.79023"
       orientation="1,0"
       id="guide56" />
    <sodipodi:guide
       position="92.489919,98.849748"
       orientation="1,0"
       id="guide58" />
    <sodipodi:guide
       position="45.035,111.8613"
       orientation="0,-1"
       id="guide60" />
    <sodipodi:guide
       position="29.367898,-0.55799029"
       orientation="0,-1"
       id="guide62" />
    <sodipodi:guide
       position="45.99885,184.65034"
       orientation="1,0"
       id="guide64" />
    <sodipodi:guide
       position="79.57095,57.482789"
       orientation="0,-1"
       id="guide66" />
  </sodipodi:namedview>
  <metadata
     id="metadata5">
    <rdf:RDF>
      <cc:Work
         rdf:about="">
        <dc:format>image/svg+xml</dc:format>
        <dc:type
           rdf:resource="http://purl.org/dc/dcmitype/StillImage" />
        <dc:title />
      </cc:Work>
    </rdf:RDF>
  </metadata>
  <g
     inkscape:label="Capa 1"
     inkscape:groupmode="layer"
     id="layer1"
     transform="translate(-65.882099,-62.116359)">
    <g
       id="g82">
      <path
         style="fill:#000000;stroke-width:0.264583"
         d="m 152.80503,101.74174 c -1.67799,-10.984209 -8.36554,-22.257647 -17.35951,-29.263551 -6.51177,-5.072387 -13.04408,-8.02142 -20.8904,-9.43105 l -2.57969,-0.463454 v 4.813039 4.813038 l 1.78594,0.352727 c 4.74505,0.937157 10.85444,3.700411 14.90859,6.743101 2.91829,2.190213 6.91904,6.374626 8.76926,9.171826 2.84328,4.298545 5.11745,9.678495 5.81792,13.763324 l 0.31142,1.8161 h 4.79507 4.79507 z"
         id="path40" />
      <path
         style="fill:#008000;stroke-width:0.264583"
         d="m 143.11467,104.38757 c -0.062,-0.10914 -0.2645,-1.03188 -0.44988,-2.05052 -0.49567,-2.723579 -1.96186,-6.762129 -3.61158,-9.947879 -5.02596,-9.705595 -13.9828,-16.542395 -25.0934,-19.153903 l -2.38125,-0.559704 -0.072,-5.126192 c -0.0396,-2.819405 0.0346,-5.232803 0.1649,-5.363106 0.35798,-0.357979 5.93556,0.722877 9.21521,1.785777 1.57451,0.510284 4.52963,1.759603 6.56692,2.776263 13.79745,6.885281 23.52601,19.982568 25.94298,34.926314 0.21522,1.33067 0.3229,2.5301 0.23928,2.6654 -0.18046,0.29199 -10.35602,0.33798 -10.52115,0.0476 z"
         id="path38" />
      <path
         style="fill:#000000;stroke-width:0.264583"
         d="m 150.61469,116.42611 c 1.2708,-0.64083 2.37116,-2.32909 2.37116,-3.63802 0,-1.109 -1.10547,-2.9817 -2.09594,-3.55056 -1.83157,-1.05194 -4.55139,-0.45353 -5.57285,1.22613 -1.34133,2.20564 -0.64523,4.84372 1.57329,5.96245 0.6493,0.32742 1.48728,0.59531 1.86217,0.59531 0.37489,0 1.21287,-0.26789 1.86217,-0.59531 z"
         id="path36" />
      <path
         style="fill:#808080;stroke-width:0.264583"
         d="m 146.51138,116.96219 c -3.36197,-1.95311 -3.29682,-6.61692 0.11652,-8.34129 2.47662,-1.25115 5.11707,-0.38033 6.38611,2.10613 1.01406,1.98689 0.37668,4.49673 -1.50679,5.93332 -1.34615,1.02676 -3.52174,1.15821 -4.99584,0.30184 z"
         id="path34" />
      <path
         style="fill:#000000;stroke-width:0.264583"
         d="m 96.048649,140.63548 c 11.723791,-10.98464 34.066121,-32.17663 34.143231,-32.38533 0.0509,-0.13766 -1.02809,-1.38736 -2.39767,-2.7771 l -2.49015,-2.52679 -16.04433,15.10737 c -8.82436,8.30906 -16.210171,15.10737 -16.412891,15.10737 -0.20271,0 -3.79707,-3.51783 -7.98745,-7.8174 l -7.618878,-7.81741 -2.542429,2.45959 c -1.398335,1.35278 -2.582834,2.55105 -2.632219,2.66283 -0.08535,0.19318 20.260866,21.09573 20.534256,21.09573 0.0718,0 1.6236,-1.39899 3.44853,-3.10886 z"
         id="path32" />
      <path
         style="fill:#808080;fill-opacity:1;stroke-width:0.264583"
         d="m 81.283779,133.79313 c -5.748074,-5.89937 -10.486598,-10.88049 -10.530054,-11.06915 -0.0814,-0.35339 5.286107,-5.50946 5.879149,-5.64757 0.182568,-0.0425 3.789644,3.43128 8.015725,7.71953 l 7.683783,7.79683 15.933368,-14.99557 c 8.76336,-8.24756 16.11598,-15.03713 16.33915,-15.08792 0.4421,-0.10062 5.89137,5.16166 5.89137,5.68921 0,0.17305 -7.29258,7.20606 -16.20573,15.62892 -19.813148,18.72327 -21.955858,20.71315 -22.291138,20.70124 -0.14552,-0.005 -4.96755,-4.83616 -10.715623,-10.73552 z"
         id="path28" />
      <text
         xml:space="preserve"
         id="text42"
         style="font-style:normal;font-weight:normal;font-size:10.5833px;line-height:1.25;font-family:sans-serif;white-space:pre;shape-inside:url(#rect44);fill:#000000;fill-opacity:1;stroke:none"
         transform="matrix(1.5109882,0,0,1.5295342,-14.11558,-90.434383)"><tspan
           x="55.183594"
           y="170.29609"
           id="tspan11805"><tspan
             style="font-family:Tahoma;-inkscape-font-specification:'Tahoma, Normal'"
             id="tspan11801">VerifyDOC</tspan><tspan
             style="font-family:Tahoma;-inkscape-font-specification:'Tahoma, Normal'"
             id="tspan11803">®</tspan></tspan></text>
    </g>
  </g>
</svg>
